<?xml version="1.0" encoding="iso-8859-1"?>
<!-- Generator: Adobe Illustrator 18.0.0, SVG Export Plug-In . SVG Version: 6.00 Build 0)  -->
<!DOCTYPE svg PUBLIC "-//W3C//DTD SVG 1.1//EN" "http://www.w3.org/Graphics/SVG/1.1/DTD/svg11.dtd">
<svg version="1.1" id="Capa_1" xmlns="http://www.w3.org/2000/svg" xmlns:xlink="http://www.w3.org/1999/xlink" x="0px" y="0px"
	 viewBox="0 0 492.647 492.647" style="enable-background:new 0 0 492.647 492.647;" xml:space="preserve">
<path id="XMLID_659_" d="M406.371,218.355H386.29v-78.409C386.29,62.782,323.508,0,246.344,0
	C169.17,0,106.389,62.782,106.389,139.946c0,18.258,14.803,33.062,33.062,33.062c18.257,0,33.062-14.804,33.062-33.062
	c0-40.706,33.117-73.823,73.831-73.823c40.706,0,73.823,33.117,73.823,73.823v78.409H247.03h-1.405H86.275
	c-22.141,0-40.092,61.408-40.092,137.146c0,75.735,17.951,137.146,40.092,137.146h159.35h1.405h159.341
	c22.142,0,40.093-61.411,40.093-137.146C446.464,279.763,428.513,218.355,406.371,218.355z M282.48,417.934
	c0,11.115-9.016,20.131-20.131,20.131h-32.06c-11.115,0-20.131-9.016-20.131-20.131v-91.983c0-11.116,9.016-20.132,20.131-20.132
	h32.06c11.116,0,20.131,9.016,20.131,20.132V417.934z"/>
<g>
</g>
<g>
</g>
<g>
</g>
<g>
</g>
<g>
</g>
<g>
</g>
<g>
</g>
<g>
</g>
<g>
</g>
<g>
</g>
<g>
</g>
<g>
</g>
<g>
</g>
<g>
</g>
<g>
</g>
</svg>
