<?xml version="1.0" encoding="UTF-8" standalone="no"?>
<svg
   xmlns:dc="http://purl.org/dc/elements/1.1/"
   xmlns:cc="http://creativecommons.org/ns#"
   xmlns:rdf="http://www.w3.org/1999/02/22-rdf-syntax-ns#"
   xmlns:svg="http://www.w3.org/2000/svg"
   xmlns="http://www.w3.org/2000/svg"
   xmlns:sodipodi="http://sodipodi.sourceforge.net/DTD/sodipodi-0.dtd"
   xmlns:inkscape="http://www.inkscape.org/namespaces/inkscape"
   height="512"
   viewBox="0 0 56 57"
   width="512"
   version="1.1"
   id="svg8420"
   sodipodi:docname="white-milling-machine.svg"
   inkscape:version="0.92.4 (5da689c313, 2019-01-14)">
  <metadata
     id="metadata8426">
    <rdf:RDF>
      <cc:Work
         rdf:about="">
        <dc:format>image/svg+xml</dc:format>
        <dc:type
           rdf:resource="http://purl.org/dc/dcmitype/StillImage" />
        <dc:title></dc:title>
      </cc:Work>
    </rdf:RDF>
  </metadata>
  <defs
     id="defs8424" />
  <sodipodi:namedview
     pagecolor="#ffffff"
     bordercolor="#666666"
     borderopacity="1"
     objecttolerance="10"
     gridtolerance="10"
     guidetolerance="10"
     inkscape:pageopacity="0"
     inkscape:pageshadow="2"
     inkscape:window-width="1920"
     inkscape:window-height="1017"
     id="namedview8422"
     showgrid="false"
     inkscape:zoom="0.4609375"
     inkscape:cx="256"
     inkscape:cy="256"
     inkscape:window-x="1912"
     inkscape:window-y="-8"
     inkscape:window-maximized="1"
     inkscape:current-layer="svg8420" />
  <g
     id="021---Gears-Cutting"
     style="fill:#ffffff;fill-opacity:1">
    <path
       id="Shape"
       d="m30 12 2.63 6.59.01.01 1.36 3.4h16l4-10z"
       style="fill:#ffffff;fill-opacity:1" />
    <path
       id="path8399"
       d="m36 33h12c.5522847 0 1-.4477153 1-1v-3h2c.5522847 0 1-.4477153 1-1v-3c0-.5522847-.4477153-1-1-1h-18c-.5522847 0-1 .4477153-1 1v3c0 .5522847.4477153 1 1 1h2v3c0 .5522847.4477153 1 1 1z"
       style="fill:#ffffff;fill-opacity:1" />
    <path
       id="path8401"
       d="m41 43.25v1.75c0 .5522847.4477153 1 1 1s1-.4477153 1-1v-1.75l3-2.25v-6h-8v6z"
       style="fill:#ffffff;fill-opacity:1" />
    <path
       id="path8403"
       d="m55 0h-26c-.5522847 0-1 .44771525-1 1v8c.0026428.36286783.2016538.69582845.52.87.31.2-1.21.13 26.48.13.5522847 0 1-.44771525 1-1v-8c0-.55228475-.4477153-1-1-1zm-3 5h-14c-.5522847 0-1-.44771525-1-1s.4477153-1 1-1h14c.5522847 0 1 .44771525 1 1s-.4477153 1-1 1z"
       style="fill:#ffffff;fill-opacity:1" />
    <path
       id="path8405"
       d="m28.19 15.62-.73-4c-.6103302-.3654007-1.0656798-.9417025-1.28-1.62h-5.51c-.4890037-.00797625-.9120327.3389075-1 .82l-.87 4.8c3.0748716-.8307877 6.3151284-.8307877 9.39 0z"
       style="fill:#ffffff;fill-opacity:1" />
    <path
       id="path8407"
       d="m7 33.5c-.00850039 7.2336942 4.6984116 13.6283899 11.6077973 15.7700699 6.9093856 2.14168 14.4078945-.4697407 18.4922027-6.4400699l-1.1-.83v-7c-1.6568542 0-3-1.3431458-3-3v-1c-1.6568542 0-3-1.3431458-3-3v-3c.005249-1.2393868.772111-2.3479592 1.93-2.79l-1.47-3.67c-5.1104565-2.3657819-11.0740351-1.9652866-15.8222715 1.0625743-4.74823631 3.0278608-7.6269756 8.2659451-7.6377285 13.8974257zm13-13.5c.5522847 0 1 .4477153 1 1s-.4477153 1-1 1-1-.4477153-1-1 .4477153-1 1-1zm3.5 9c2.4852814 0 4.5 2.0147186 4.5 4.5s-2.0147186 4.5-4.5 4.5-4.5-2.0147186-4.5-4.5c.0054995-2.4829999 2.0170001-4.4945005 4.5-4.5zm-6.95-6.89c.3211808-.1932607.7234705-.1906728 1.0421383.0067041.3186678.1973768.5001928.5563928.4702434.9300368s-.2663431.6991617-.6123817.8432591c-3.52 1.76-5.45 5.35-5.45 10.11 0 .5522847-.4477153 1-1 1s-1-.4477153-1-1c0-5.56 2.33-9.78 6.55-11.89z"
       style="fill:#ffffff;fill-opacity:1" />
    <path
       id="path8409"
       d="m20.67 57h5.66c.4890037.0079763.9120327-.3389075 1-.82l.87-4.8c-3.0717184.8289875-6.3082816.8289875-9.38 0l.87 4.8c.086663.4736154.4985242.818234.98.82z"
       style="fill:#ffffff;fill-opacity:1" />
    <path
       id="path8411"
       d="m7.54 42.82-2.78 4c-.27026297.3971977-.21987661.9304533.12 1.27l4 4c.34207386.3367048.8751279.3828749 1.27.11l4-2.78c-2.7264378-1.6050738-5.00080022-3.8759954-6.61-6.6z"
       style="fill:#ffffff;fill-opacity:1" />
    <path
       id="path8413"
       d="m33.35 49.13 4.49 3.11c.3971977.270263.9304533.2198766 1.27-.12 4.3-4.36 4.2-4.11 4.26-4.45-.9301918.4774838-2.0418843.4362144-2.9341133-.1089232-.892229-.5451377-1.4362654-1.515492-1.4358867-2.5610768v-.75l-.32-.25c-1.4121113 2.0523015-3.2252179 3.797374-5.33 5.13z"
       style="fill:#ffffff;fill-opacity:1" />
    <path
       id="path8415"
       d="m8.89 14.88-4 4c-.33670485.3420739-.38287488.8751279-.11 1.27l2.78 4c1.6121851-2.7423468 3.8976532-5.0278149 6.64-6.64l-4-2.78c-.4124586-.2857367-.97280606-.2215747-1.31.15z"
       style="fill:#ffffff;fill-opacity:1" />
    <path
       id="path8417"
       d="m0 30.67v5.66c-.00797625.4890037.33890747.9120327.82 1l4.8.87c-.82898746-3.0717184-.82898746-6.3082816 0-9.38l-4.8.87c-.47361541.086663-.81823401.4985242-.82.98z"
       style="fill:#ffffff;fill-opacity:1" />
  </g>
</svg>
