<?xml version="1.0" encoding="UTF-8" standalone="no"?>
<!-- Generator: Adobe Illustrator 19.0.0, SVG Export Plug-In . SVG Version: 6.00 Build 0)  -->

<svg
   xmlns:dc="http://purl.org/dc/elements/1.1/"
   xmlns:cc="http://creativecommons.org/ns#"
   xmlns:rdf="http://www.w3.org/1999/02/22-rdf-syntax-ns#"
   xmlns:svg="http://www.w3.org/2000/svg"
   xmlns="http://www.w3.org/2000/svg"
   xmlns:sodipodi="http://sodipodi.sourceforge.net/DTD/sodipodi-0.dtd"
   xmlns:inkscape="http://www.inkscape.org/namespaces/inkscape"
   version="1.1"
   id="Capa_1"
   x="0px"
   y="0px"
   viewBox="0 0 512.171 512.171"
   style="enable-background:new 0 0 512.171 512.171;"
   xml:space="preserve"
   sodipodi:docname="white_south_arrow.svg"
   inkscape:version="0.92.4 (5da689c313, 2019-01-14)"><metadata
   id="metadata43"><rdf:RDF><cc:Work
       rdf:about=""><dc:format>image/svg+xml</dc:format><dc:type
         rdf:resource="http://purl.org/dc/dcmitype/StillImage" /><dc:title></dc:title></cc:Work></rdf:RDF></metadata><defs
   id="defs41" /><sodipodi:namedview
   pagecolor="#ffffff"
   bordercolor="#666666"
   borderopacity="1"
   objecttolerance="10"
   gridtolerance="10"
   guidetolerance="10"
   inkscape:pageopacity="0"
   inkscape:pageshadow="2"
   inkscape:window-width="1440"
   inkscape:window-height="837"
   id="namedview39"
   showgrid="false"
   inkscape:zoom="0.46078359"
   inkscape:cx="-148.65981"
   inkscape:cy="256.08551"
   inkscape:window-x="-8"
   inkscape:window-y="-8"
   inkscape:window-maximized="1"
   inkscape:current-layer="Capa_1" />
<g
   id="g6"
   transform="translate(2.9289321e-6,-7.0710678e-6)">
	<g
   id="g4">
		<path
   d="m 479.046,283.925 c -1.664,-3.989 -5.547,-6.592 -9.856,-6.592 H 352.305 V 10.667 C 352.305,4.779 347.526,0 341.638,0 H 170.971 c -5.888,0 -10.667,4.779 -10.667,10.667 V 277.334 H 42.971 c -4.309,0 -8.192,2.603 -9.856,6.571 -1.643,3.989 -0.747,8.576 2.304,11.627 l 212.8,213.504 c 2.005,2.005 4.715,3.136 7.552,3.136 2.837,0 5.547,-1.131 7.552,-3.115 L 476.742,295.553 c 3.051,-3.052 3.968,-7.638 2.304,-11.628 z"
   id="path2"
   inkscape:connector-curvature="0" />
	</g>
</g>
<g
   id="g8">
</g>
<g
   id="g10">
</g>
<g
   id="g12">
</g>
<g
   id="g14">
</g>
<g
   id="g16">
</g>
<g
   id="g18">
</g>
<g
   id="g20">
</g>
<g
   id="g22">
</g>
<g
   id="g24">
</g>
<g
   id="g26">
</g>
<g
   id="g28">
</g>
<g
   id="g30">
</g>
<g
   id="g32">
</g>
<g
   id="g34">
</g>
<g
   id="g36">
</g>
<path
   style="fill:#ffffff;fill-opacity:1;stroke:#000000;stroke-width:0;stroke-miterlimit:4;stroke-dasharray:none;stroke-opacity:1"
   d="M 143.77793,403.11766 C 85.121208,344.33192 36.028513,294.05954 34.683048,291.40126 c -2.02498,-4.00083 -1.690192,-5.58937 1.943869,-9.22342 4.193893,-4.19389 7.058411,-4.39017 64.071113,-4.39017 h 59.68095 v -134.5534 c 0,-131.659785 0.0933,-134.6467494 4.34043,-138.893839 4.19494,-4.19494197 7.23405,-4.3404323993141 90.66619,-4.3404323993141 74.61912,0 86.97985,0.4581423993141 91.14908,3.3783841993141 l 4.82332,3.378384 V 142.27222 277.78767 h 60.42969 c 55.78717,0 60.70564,0.30489 64.02138,3.96876 1.97544,2.18283 3.59169,5.33418 3.59169,7.00303 0,1.66883 -49.06093,52.13085 -109.02431,112.1378 -86.19146,86.25412 -110.16837,109.10354 -114.48713,109.10354 -4.31936,0 -27.78601,-22.3723 -112.11139,-106.88314 z"
   id="path6892"
   inkscape:connector-curvature="0" /></svg>