<?xml version="1.0" encoding="UTF-8" standalone="no"?>
<!-- Generator: Adobe Illustrator 19.0.0, SVG Export Plug-In . SVG Version: 6.00 Build 0)  -->

<svg
   xmlns:dc="http://purl.org/dc/elements/1.1/"
   xmlns:cc="http://creativecommons.org/ns#"
   xmlns:rdf="http://www.w3.org/1999/02/22-rdf-syntax-ns#"
   xmlns:svg="http://www.w3.org/2000/svg"
   xmlns="http://www.w3.org/2000/svg"
   xmlns:sodipodi="http://sodipodi.sourceforge.net/DTD/sodipodi-0.dtd"
   xmlns:inkscape="http://www.inkscape.org/namespaces/inkscape"
   version="1.1"
   id="Layer_1"
   x="0px"
   y="0px"
   viewBox="0 0 297 297"
   style="enable-background:new 0 0 297 297;"
   xml:space="preserve"
   sodipodi:docname="white-delete.svg"
   inkscape:version="0.92.4 (5da689c313, 2019-01-14)"><metadata
   id="metadata7642"><rdf:RDF><cc:Work
       rdf:about=""><dc:format>image/svg+xml</dc:format><dc:type
         rdf:resource="http://purl.org/dc/dcmitype/StillImage" /><dc:title></dc:title></cc:Work></rdf:RDF></metadata><defs
   id="defs7640" /><sodipodi:namedview
   pagecolor="#ffffff"
   bordercolor="#666666"
   borderopacity="1"
   objecttolerance="10"
   gridtolerance="10"
   guidetolerance="10"
   inkscape:pageopacity="0"
   inkscape:pageshadow="2"
   inkscape:window-width="1920"
   inkscape:window-height="1017"
   id="namedview7638"
   showgrid="false"
   inkscape:zoom="0.79461279"
   inkscape:cx="148.5"
   inkscape:cy="148.5"
   inkscape:window-x="-8"
   inkscape:window-y="-8"
   inkscape:window-maximized="1"
   inkscape:current-layer="Layer_1" />
<g
   id="g7605"
   style="fill:#ffffff;fill-opacity:1">
	<g
   id="g7603"
   style="fill:#ffffff;fill-opacity:1">
		<g
   id="g7601"
   style="fill:#ffffff;fill-opacity:1">
			<path
   d="M150.333,203.762c0-32.35,26.317-58.667,58.667-58.667c6.527,0,12.8,1.087,18.669,3.063l4.882-58.587H47.163     l14.518,174.21C63.233,282.408,79.091,297,97.784,297h84.147c18.692,0,34.551-14.592,36.103-33.219l0.173-2.081     c-3.001,0.475-6.075,0.729-9.207,0.729C176.651,262.429,150.333,236.112,150.333,203.762z"
   id="path7593"
   style="fill:#ffffff;fill-opacity:1" />
			<path
   d="M209,158.714c-24.839,0-45.048,20.209-45.048,45.048c0,24.839,20.209,45.048,45.048,45.048s45.048-20.209,45.048-45.048     C254.048,178.923,233.839,158.714,209,158.714z M231.101,216.232c2.659,2.66,2.659,6.971,0,9.631     c-1.33,1.329-3.073,1.994-4.816,1.994c-1.742,0-3.486-0.665-4.816-1.994L209,213.393l-12.47,12.47     c-1.33,1.329-3.073,1.994-4.816,1.994c-1.742,0-3.486-0.665-4.816-1.994c-2.659-2.66-2.659-6.971,0-9.631l12.47-12.47     l-12.47-12.47c-2.659-2.66-2.659-6.971,0-9.631c2.66-2.658,6.971-2.658,9.631,0l12.47,12.47l12.47-12.47     c2.661-2.658,6.972-2.658,9.632,0c2.659,2.66,2.659,6.971,0,9.631l-12.47,12.47L231.101,216.232z"
   id="path7595"
   style="fill:#ffffff;fill-opacity:1" />
			<path
   d="M112.095,26.102c0-6.883,5.6-12.483,12.483-12.483h30.556c6.884,0,12.484,5.6,12.484,12.483v8.507h13.619v-8.507     C181.238,11.71,169.528,0,155.135,0h-30.556c-14.392,0-26.102,11.71-26.102,26.102v8.507h13.618V26.102z"
   id="path7597"
   style="fill:#ffffff;fill-opacity:1" />
			<path
   d="M236.762,63.643c0-8.5-6.915-15.415-15.415-15.415H58.367c-8.5,0-15.415,6.915-15.415,15.415v12.31h193.81V63.643z"
   id="path7599"
   style="fill:#ffffff;fill-opacity:1" />
		</g>
	</g>
</g>
<g
   id="g7607">
</g>
<g
   id="g7609">
</g>
<g
   id="g7611">
</g>
<g
   id="g7613">
</g>
<g
   id="g7615">
</g>
<g
   id="g7617">
</g>
<g
   id="g7619">
</g>
<g
   id="g7621">
</g>
<g
   id="g7623">
</g>
<g
   id="g7625">
</g>
<g
   id="g7627">
</g>
<g
   id="g7629">
</g>
<g
   id="g7631">
</g>
<g
   id="g7633">
</g>
<g
   id="g7635">
</g>
</svg>