<?xml version="1.0" encoding="UTF-8" standalone="no"?>
<!-- Generator: Adobe Illustrator 19.0.0, SVG Export Plug-In . SVG Version: 6.00 Build 0)  -->

<svg
   xmlns:dc="http://purl.org/dc/elements/1.1/"
   xmlns:cc="http://creativecommons.org/ns#"
   xmlns:rdf="http://www.w3.org/1999/02/22-rdf-syntax-ns#"
   xmlns:svg="http://www.w3.org/2000/svg"
   xmlns="http://www.w3.org/2000/svg"
   xmlns:sodipodi="http://sodipodi.sourceforge.net/DTD/sodipodi-0.dtd"
   xmlns:inkscape="http://www.inkscape.org/namespaces/inkscape"
   version="1.1"
   id="Layer_1"
   x="0px"
   y="0px"
   viewBox="0 0 297 297"
   style="enable-background:new 0 0 297 297;"
   xml:space="preserve"
   sodipodi:docname="white-refresh.svg"
   inkscape:version="0.92.4 (5da689c313, 2019-01-14)"><metadata
   id="metadata8279"><rdf:RDF><cc:Work
       rdf:about=""><dc:format>image/svg+xml</dc:format><dc:type
         rdf:resource="http://purl.org/dc/dcmitype/StillImage" /><dc:title></dc:title></cc:Work></rdf:RDF></metadata><defs
   id="defs8277" /><sodipodi:namedview
   pagecolor="#ffffff"
   bordercolor="#666666"
   borderopacity="1"
   objecttolerance="10"
   gridtolerance="10"
   guidetolerance="10"
   inkscape:pageopacity="0"
   inkscape:pageshadow="2"
   inkscape:window-width="1920"
   inkscape:window-height="1017"
   id="namedview8275"
   showgrid="false"
   inkscape:zoom="0.79461279"
   inkscape:cx="148.5"
   inkscape:cy="148.5"
   inkscape:window-x="-8"
   inkscape:window-y="-8"
   inkscape:window-maximized="1"
   inkscape:current-layer="Layer_1" />
<g
   id="g8242"
   style="fill:#ffffff;fill-opacity:1">
	<g
   id="g8240"
   style="fill:#ffffff;fill-opacity:1">
		<g
   id="g8238"
   style="fill:#ffffff;fill-opacity:1">
			<path
   d="M296.141,186.356l-27.126-48.715c-1.336-2.4-3.989-3.766-6.714-3.45l-55.4,6.303c-2.261,0.257-4.244,1.627-5.284,3.651     l-18.85,36.679c-1.156,2.249-0.969,4.953,0.485,7.023c1.454,2.068,3.929,3.159,6.444,2.836l23.051-2.993     c-20.337,35.353-64.85,49.091-101.028,30.524c-11.011-5.65-20.55-13.969-27.589-24.062c-6.989-10.021-20.236-13.018-30.816-6.966     c-5.686,3.253-9.774,8.785-11.212,15.178c-1.435,6.378-0.119,13.112,3.614,18.471c11.497,16.508,27.12,30.076,45.179,39.237     c17.456,8.855,36.103,13.048,54.536,13.048c43.693-0.002,86.158-23.572,108.507-64.484l11.434,20.968     c1.206,2.213,3.55,3.533,6.057,3.548c2.521-0.032,4.817-1.453,5.97-3.695l18.85-36.679     C297.288,190.753,297.248,188.343,296.141,186.356z"
   id="path8234"
   style="fill:#ffffff;fill-opacity:1" />
			<path
   d="M95.385,152.854l18.85-36.679c1.156-2.249,0.969-4.953-0.485-7.023c-1.454-2.068-3.932-3.157-6.444-2.836l-23.051,2.993     c20.335-35.353,64.848-49.092,101.028-30.524c11.012,5.65,20.551,13.97,27.589,24.061c6.989,10.022,20.235,13.016,30.816,6.968     c5.686-3.253,9.774-8.785,11.212-15.178c1.436-6.379,0.119-13.112-3.614-18.472c-11.497-16.508-27.12-30.076-45.179-39.237     C147.277,7.083,74.841,30.192,43.065,88.364L31.631,67.395c-1.193-2.189-3.486-3.548-5.975-3.548c-0.028,0-0.055,0-0.083,0     c-2.521,0.032-4.817,1.453-5.97,3.695l-18.85,36.679c-1.04,2.023-1,4.433,0.107,6.42l27.126,48.715     c1.209,2.174,3.495,3.494,5.943,3.494c0.256,0,0.513-0.014,0.771-0.044l55.4-6.303C92.362,156.248,94.345,154.878,95.385,152.854     z"
   id="path8236"
   style="fill:#ffffff;fill-opacity:1" />
		</g>
	</g>
</g>
<g
   id="g8244">
</g>
<g
   id="g8246">
</g>
<g
   id="g8248">
</g>
<g
   id="g8250">
</g>
<g
   id="g8252">
</g>
<g
   id="g8254">
</g>
<g
   id="g8256">
</g>
<g
   id="g8258">
</g>
<g
   id="g8260">
</g>
<g
   id="g8262">
</g>
<g
   id="g8264">
</g>
<g
   id="g8266">
</g>
<g
   id="g8268">
</g>
<g
   id="g8270">
</g>
<g
   id="g8272">
</g>
</svg>