<?xml version="1.0" encoding="UTF-8" standalone="no"?>
<!-- Generator: Adobe Illustrator 18.0.0, SVG Export Plug-In . SVG Version: 6.00 Build 0)  -->

<svg
   xmlns:osb="http://www.openswatchbook.org/uri/2009/osb"
   xmlns:dc="http://purl.org/dc/elements/1.1/"
   xmlns:cc="http://creativecommons.org/ns#"
   xmlns:rdf="http://www.w3.org/1999/02/22-rdf-syntax-ns#"
   xmlns:svg="http://www.w3.org/2000/svg"
   xmlns="http://www.w3.org/2000/svg"
   xmlns:sodipodi="http://sodipodi.sourceforge.net/DTD/sodipodi-0.dtd"
   xmlns:inkscape="http://www.inkscape.org/namespaces/inkscape"
   version="1.1"
   id="Capa_1"
   x="0px"
   y="0px"
   viewBox="0 0 492.647 492.647"
   style="enable-background:new 0 0 492.647 492.647;"
   xml:space="preserve"
   sodipodi:docname="gray-unlock-padlock.svg"
   inkscape:version="0.92.4 (5da689c313, 2019-01-14)"><metadata
   id="metadata5288"><rdf:RDF><cc:Work
       rdf:about=""><dc:format>image/svg+xml</dc:format><dc:type
         rdf:resource="http://purl.org/dc/dcmitype/StillImage" /><dc:title></dc:title></cc:Work></rdf:RDF></metadata><defs
   id="defs5286"><linearGradient
     id="linearGradient5835"
     osb:paint="solid"><stop
       style="stop-color:#000000;stop-opacity:1;"
       offset="0"
       id="stop5833" /></linearGradient></defs><sodipodi:namedview
   pagecolor="#ffffff"
   bordercolor="#666666"
   borderopacity="1"
   objecttolerance="10"
   gridtolerance="10"
   guidetolerance="10"
   inkscape:pageopacity="0"
   inkscape:pageshadow="2"
   inkscape:window-width="1920"
   inkscape:window-height="1017"
   id="namedview5284"
   showgrid="false"
   inkscape:zoom="0.47904483"
   inkscape:cx="-142.99288"
   inkscape:cy="246.3235"
   inkscape:window-x="1912"
   inkscape:window-y="-8"
   inkscape:window-maximized="1"
   inkscape:current-layer="Capa_1" />
<path
   id="XMLID_659_"
   d="M406.371,218.355H386.29v-78.409C386.29,62.782,323.508,0,246.344,0  C169.17,0,106.389,62.782,106.389,139.946c0,18.258,14.803,33.062,33.062,33.062c18.257,0,33.062-14.804,33.062-33.062  c0-40.706,33.117-73.823,73.831-73.823c40.706,0,73.823,33.117,73.823,73.823v78.409H247.03h-1.405H86.275  c-22.141,0-40.092,61.408-40.092,137.146c0,75.735,17.951,137.146,40.092,137.146h159.35h1.405h159.341  c22.142,0,40.093-61.411,40.093-137.146C446.464,279.763,428.513,218.355,406.371,218.355z M282.48,417.934  c0,11.115-9.016,20.131-20.131,20.131h-32.06c-11.115,0-20.131-9.016-20.131-20.131v-91.983c0-11.116,9.016-20.132,20.131-20.132  h32.06c11.116,0,20.131,9.016,20.131,20.132V417.934z"
   style="fill:#000000;fill-opacity:0.19607843" />
<g
   id="g5253">
</g>
<g
   id="g5255">
</g>
<g
   id="g5257">
</g>
<g
   id="g5259">
</g>
<g
   id="g5261">
</g>
<g
   id="g5263">
</g>
<g
   id="g5265">
</g>
<g
   id="g5267">
</g>
<g
   id="g5269">
</g>
<g
   id="g5271">
</g>
<g
   id="g5273">
</g>
<g
   id="g5275">
</g>
<g
   id="g5277">
</g>
<g
   id="g5279">
</g>
<g
   id="g5281">
</g>
</svg>