<?xml version="1.0" encoding="UTF-8" standalone="no"?>
<!-- Generator: Adobe Illustrator 19.0.0, SVG Export Plug-In . SVG Version: 6.00 Build 0)  -->

<svg
   xmlns:dc="http://purl.org/dc/elements/1.1/"
   xmlns:cc="http://creativecommons.org/ns#"
   xmlns:rdf="http://www.w3.org/1999/02/22-rdf-syntax-ns#"
   xmlns:svg="http://www.w3.org/2000/svg"
   xmlns="http://www.w3.org/2000/svg"
   xmlns:sodipodi="http://sodipodi.sourceforge.net/DTD/sodipodi-0.dtd"
   xmlns:inkscape="http://www.inkscape.org/namespaces/inkscape"
   version="1.1"
   id="Capa_1"
   x="0px"
   y="0px"
   viewBox="0 0 426.667 426.667"
   style="enable-background:new 0 0 426.667 426.667;"
   xml:space="preserve"
   sodipodi:docname="white_circle.svg"
   inkscape:version="0.92.4 (5da689c313, 2019-01-14)"><metadata
   id="metadata8769"><rdf:RDF><cc:Work
       rdf:about=""><dc:format>image/svg+xml</dc:format><dc:type
         rdf:resource="http://purl.org/dc/dcmitype/StillImage" /><dc:title></dc:title></cc:Work></rdf:RDF></metadata><defs
   id="defs8767" /><sodipodi:namedview
   pagecolor="#ffffff"
   bordercolor="#666666"
   borderopacity="1"
   objecttolerance="10"
   gridtolerance="10"
   guidetolerance="10"
   inkscape:pageopacity="0"
   inkscape:pageshadow="2"
   inkscape:window-width="1440"
   inkscape:window-height="837"
   id="namedview8765"
   showgrid="false"
   inkscape:zoom="0.55312458"
   inkscape:cx="213.3335"
   inkscape:cy="213.3335"
   inkscape:window-x="-8"
   inkscape:window-y="-8"
   inkscape:window-maximized="1"
   inkscape:current-layer="Capa_1" />
<g
   id="g8720">
	<g
   id="g8718">
		<path
   d="M213.333,0C95.513,0,0,95.513,0,213.333s95.513,213.333,213.333,213.333s213.333-95.513,213.333-213.333    S331.154,0,213.333,0z M213.333,387.413c-96.142,0-174.08-77.938-174.08-174.08s77.938-174.08,174.08-174.08    c96.093,0.118,173.962,77.987,174.08,174.08C387.413,309.475,309.475,387.413,213.333,387.413z"
   id="path8716" />
	</g>
</g>
<g
   id="g8726">
	<g
   id="g8724">
		<circle
   cx="213.333"
   cy="213.333"
   r="64"
   id="circle8722" />
	</g>
</g>
<g
   id="g8732">
	<g
   id="g8730">
		<path
   d="M213.333,128C166.205,128,128,166.205,128,213.333s38.205,85.333,85.333,85.333s85.333-38.205,85.333-85.333    S260.462,128,213.333,128z M213.333,256c-23.564,0-42.667-19.103-42.667-42.667s19.103-42.667,42.667-42.667    S256,189.769,256,213.333S236.897,256,213.333,256z"
   id="path8728" />
	</g>
</g>
<g
   id="g8734">
</g>
<g
   id="g8736">
</g>
<g
   id="g8738">
</g>
<g
   id="g8740">
</g>
<g
   id="g8742">
</g>
<g
   id="g8744">
</g>
<g
   id="g8746">
</g>
<g
   id="g8748">
</g>
<g
   id="g8750">
</g>
<g
   id="g8752">
</g>
<g
   id="g8754">
</g>
<g
   id="g8756">
</g>
<g
   id="g8758">
</g>
<g
   id="g8760">
</g>
<g
   id="g8762">
</g>
<path
   style="fill:#ffffff;fill-opacity:1;stroke:#000000;stroke-width:0;stroke-miterlimit:4;stroke-dasharray:none;stroke-opacity:1"
   d="M 202.30524,425.33811 C 164.58963,423.5652 126.06651,410.44781 92.926625,388.09396 76.597549,377.07952 51.420959,352.39848 40.0636,336.27144 28.915493,320.44154 16.550037,295.30478 10.718388,276.6179 -5.7076223,223.98253 -1.1282644,167.9595 23.649734,118.41817 34.729596,96.265003 45.481919,81.492193 63.853377,63.181662 104.81857,22.352326 154.95279,1.6768588 213.18123,1.5985162 c 59.92186,-0.08062 113.322,22.7891128 154.23643,66.0550118 29.44758,31.140005 48.61133,69.686832 55.37274,111.379322 10.63458,65.57528 -9.75177,131.89092 -55.27892,179.81917 -43.18456,45.46211 -102.72377,69.42324 -165.20624,66.48609 z m 30.91869,-38.46199 c 71.7363,-8.99497 126.75608,-55.6001 148.31625,-125.63298 4.67394,-15.18217 5.00621,-18.38877 4.96432,-47.90964 -0.0414,-29.23553 -0.41969,-32.86544 -4.97987,-47.79386 C 365.97952,114.65057 331.76192,75.096088 284.90461,53.849976 262.00823,43.468255 241.49554,39.312126 213.1527,39.312126 c -21.48065,0 -28.01146,0.711588 -43.15808,4.702458 C 107.69069,60.430569 60.821924,107.2076 43.818602,169.94363 37.850567,191.9635 37.85336,234.28297 43.824402,256.72336 66.330249,341.30595 148.16496,397.54162 233.224,386.87612 Z"
   id="path9314"
   inkscape:connector-curvature="0" /><path
   style="fill:#ffffff;fill-opacity:1;stroke:#000000;stroke-width:0;stroke-miterlimit:4;stroke-dasharray:none;stroke-opacity:1"
   d="m 196.89988,296.18061 c -30.35254,-5.78809 -56.99996,-31.23746 -65.04367,-62.11935 -14.95936,-57.43284 35.49568,-113.45671 93.73379,-104.07938 41.86432,6.74087 71.63057,41.37782 71.63057,83.35162 0,40.02983 -27.44611,74.06016 -66.38578,82.31148 -13.77937,2.91985 -20.84715,3.03141 -33.93491,0.53563 z"
   id="path9316"
   inkscape:connector-curvature="0" /></svg>