<?xml version="1.0" encoding="UTF-8" standalone="no"?>
<!-- Generator: Adobe Illustrator 19.0.0, SVG Export Plug-In . SVG Version: 6.00 Build 0)  -->

<svg
   xmlns:dc="http://purl.org/dc/elements/1.1/"
   xmlns:cc="http://creativecommons.org/ns#"
   xmlns:rdf="http://www.w3.org/1999/02/22-rdf-syntax-ns#"
   xmlns:svg="http://www.w3.org/2000/svg"
   xmlns="http://www.w3.org/2000/svg"
   xmlns:sodipodi="http://sodipodi.sourceforge.net/DTD/sodipodi-0.dtd"
   xmlns:inkscape="http://www.inkscape.org/namespaces/inkscape"
   version="1.1"
   id="Capa_1"
   x="0px"
   y="0px"
   viewBox="0 0 512.171 512.171"
   style="enable-background:new 0 0 512.171 512.171;"
   xml:space="preserve"
   sodipodi:docname="white_south_east_arrow.svg"
   inkscape:version="0.92.4 (5da689c313, 2019-01-14)"><metadata
   id="metadata43"><rdf:RDF><cc:Work
       rdf:about=""><dc:format>image/svg+xml</dc:format><dc:type
         rdf:resource="http://purl.org/dc/dcmitype/StillImage" /><dc:title></dc:title></cc:Work></rdf:RDF></metadata><defs
   id="defs41" /><sodipodi:namedview
   pagecolor="#ffffff"
   bordercolor="#666666"
   borderopacity="1"
   objecttolerance="10"
   gridtolerance="10"
   guidetolerance="10"
   inkscape:pageopacity="0"
   inkscape:pageshadow="2"
   inkscape:window-width="1440"
   inkscape:window-height="837"
   id="namedview39"
   showgrid="false"
   inkscape:zoom="0.46078359"
   inkscape:cx="-148.65981"
   inkscape:cy="256.08551"
   inkscape:window-x="-8"
   inkscape:window-y="-8"
   inkscape:window-maximized="1"
   inkscape:current-layer="Capa_1" />
<g
   id="g6"
   transform="rotate(-45,256.08517,256.086)">
	<g
   id="g4">
		<path
   d="m 479.046,283.925 c -1.664,-3.989 -5.547,-6.592 -9.856,-6.592 H 352.305 V 10.667 C 352.305,4.779 347.526,0 341.638,0 H 170.971 c -5.888,0 -10.667,4.779 -10.667,10.667 V 277.334 H 42.971 c -4.309,0 -8.192,2.603 -9.856,6.571 -1.643,3.989 -0.747,8.576 2.304,11.627 l 212.8,213.504 c 2.005,2.005 4.715,3.136 7.552,3.136 2.837,0 5.547,-1.131 7.552,-3.115 L 476.742,295.553 c 3.051,-3.052 3.968,-7.638 2.304,-11.628 z"
   id="path2"
   inkscape:connector-curvature="0" />
	</g>
</g>
<g
   id="g8">
</g>
<g
   id="g10">
</g>
<g
   id="g12">
</g>
<g
   id="g14">
</g>
<g
   id="g16">
</g>
<g
   id="g18">
</g>
<g
   id="g20">
</g>
<g
   id="g22">
</g>
<g
   id="g24">
</g>
<g
   id="g26">
</g>
<g
   id="g28">
</g>
<g
   id="g30">
</g>
<g
   id="g32">
</g>
<g
   id="g34">
</g>
<g
   id="g36">
</g>
<path
   style="fill:#ffffff;fill-opacity:1;stroke:#000000;stroke-width:0;stroke-miterlimit:4;stroke-dasharray:none;stroke-opacity:1"
   d="m 269.09335,438.92637 c -102.04066,-0.40635 -144.96724,-1.28053 -147.03214,-2.99424 -7.08078,-5.87654 -2.76672,-11.7649 39.93068,-54.50238 L 204.83891,338.5425 108.5265,242.21186 C 24.369987,158.0394 12.378241,145.23482 13.514677,140.75986 14.230001,137.94312 42.479483,108.04964 76.291304,74.329903 123.07736,27.671273 139.02924,13.021296 143.04824,13.021296 c 4.06621,0 27.26423,21.962798 100.85387,95.483734 l 95.57298,95.48373 42.29259,-42.38501 c 38.0341,-38.11725 42.94812,-42.32318 48.80321,-41.77089 l 6.51065,0.61414 0.55675,157.93153 0.55675,157.93156 -5.58102,2.12189 c -3.06955,1.16705 -8.69137,1.88485 -12.49293,1.59511 -3.80155,-0.28975 -71.76404,-0.78506 -151.02774,-1.10072 z"
   id="path7481"
   inkscape:connector-curvature="0" /></svg>