<?xml version="1.0" encoding="UTF-8" standalone="no"?>
<svg
   xmlns:dc="http://purl.org/dc/elements/1.1/"
   xmlns:cc="http://creativecommons.org/ns#"
   xmlns:rdf="http://www.w3.org/1999/02/22-rdf-syntax-ns#"
   xmlns:svg="http://www.w3.org/2000/svg"
   xmlns="http://www.w3.org/2000/svg"
   width="1080"
   height="1080"
   viewBox="0 0 285.74999 285.75001"
   version="1.1"
   id="svg4501">
  <defs
     id="defs4495" />
  <metadata
     id="metadata4498">
    <rdf:RDF>
      <cc:Work
         rdf:about="">
        <dc:format>image/svg+xml</dc:format>
        <dc:type
           rdf:resource="http://purl.org/dc/dcmitype/StillImage" />
        <dc:title></dc:title>
      </cc:Work>
    </rdf:RDF>
  </metadata>
  <g
     id="layer1">
    <g
       id="layer1-7"
       transform="matrix(1.1801782,0,0,1.1801782,12.635774,-0.808761)">
      <g
         id="g3522"
         transform="matrix(1.2994248,0,0,1.2994248,-33.043187,-36.454228)">
        <path
           style="display:inline;fill:none;stroke:#f57921;stroke-width:13.3848;stroke-linecap:square;stroke-linejoin:miter;stroke-miterlimit:4;stroke-dasharray:none;stroke-opacity:1"
           id="path3839-6-9"
           d="m 184.01799,163.48853 -73.66315,43.3141 -73.662447,-41.74103 7.23e-4,-85.055106 73.663164,-43.314093 73.66244,41.741025 z" />
        <path
           id="path2925"
           d="m 132.54494,175.64374 c -3.1811,-1.09428 -5.88337,-3.39153 -7.39712,-6.28843 -0.77025,-1.47406 -0.90025,-1.58672 -1.83154,-1.58734 -1.58401,-0.001 -3.06658,-1.18453 -9.1485,-7.30278 l -5.63823,-5.67192 h -6.104 -6.104009 l -0.73772,1.50784 c -1.38722,2.83537 -5.01036,5.63732 -8.494909,6.56952 -5.5306,1.47956 -12.03738,-1.68524 -14.56352,-7.08348 -2.42244,-5.17663 -1.4863,-10.49099 2.56303,-14.55006 4.07662,-4.08644 9.45933,-5.05215 14.601289,-2.61961 2.04076,0.96544 4.88833,3.66909 5.89645,5.59846 l 0.8102,1.55058 6.065689,5.7e-4 6.06568,7.7e-4 8.53009,-8.53353 8.5301,-8.53354 v -3.45333 -3.45334 h -1.57913 c -0.86852,0 -1.98947,-0.19472 -2.491,-0.43271 -0.50154,-0.238 -3.77535,-3.3158 -7.27513,-6.83957 -5.208,-5.24368 -6.41964,-6.61167 -6.67385,-7.53503 -0.18014,-0.6543 -0.31126,-3.61514 -0.31218,-7.048992 l -0.002,-5.920807 -6.98059,6.968229 c -4.577539,4.56942 -7.341569,7.11738 -8.029199,7.40154 -0.85068,0.35153 -2.42534,0.43332 -8.342589,0.43332 h -7.29399 l -0.66625,1.42245 c -0.79432,1.69592 -2.80719,3.86819 -4.69312,5.0648 -7.69761,4.88404 -17.93217,0.17538 -19.57279,-9.00495 -1.41196,-7.900866 5.5839,-15.506349 13.695,-14.888403 4.30242,0.327781 8.51705,3.087892 10.4946,6.872787 l 0.78715,1.506564 6.2066,5.6e-4 6.2066,7.8e-4 9.094289,-9.097528 9.094289,-9.097522 0.006,-5.357233 c 0.005,-4.613664 0.0791,-5.517693 0.53121,-6.513312 0.76871,-1.692655 2.06373,-2.510493 3.97528,-2.510493 1.91156,0 3.20658,0.817838 3.97529,2.510493 0.49261,1.0847 0.52541,2.174994 0.53123,17.658858 l 0.006,16.502789 4.58633,4.58001 4.58632,4.58001 h 9.32664 9.32664 l 0.68281,-1.47045 c 1.01844,-2.19324 3.37165,-4.43634 6.02702,-5.74503 2.21733,-1.0928 2.27734,-1.10482 5.51449,-1.10482 3.22653,0 3.30368,0.0153 5.46231,1.08214 2.71687,1.34275 4.79893,3.36583 6.0231,5.85249 4.09124,8.31048 -1.14927,17.60542 -10.55133,18.71457 -1.89763,0.22387 -5.02792,-0.42961 -6.93475,-1.44769 -2.0253,-1.08133 -4.7573,-3.84793 -5.58638,-5.65712 l -0.67857,-1.48073 h -4.69849 -4.69849 l -0.10278,5.00628 c -0.0718,3.49555 -0.21771,5.21906 -0.48363,5.7114 -0.20946,0.38781 -4.20356,4.54554 -8.87579,9.23941 l -8.49496,8.53431 3.98703,3.98703 3.98703,3.98702 0.43452,-0.84027 c 2.15694,-4.17107 6.63542,-6.85669 11.43407,-6.85669 11.26881,0 17.1205,13.01163 9.65729,21.47364 -3.24753,3.68214 -9.01957,5.20582 -13.66596,3.60749 z m 7.0015,-5.45978 c 2.55524,-1.06765 4.36883,-3.88562 4.36883,-6.78835 0,-6.7432 -8.46386,-9.95725 -12.8199,-4.8682 -3.65179,4.2663 -1.56892,10.65656 3.94102,12.09112 1.05789,0.27543 3.33618,0.0559 4.51005,-0.43457 z M 87.088912,156.9486 c 1.61371,-0.75478 2.990169,-2.06145 3.724009,-3.53521 0.71766,-1.44126 0.69631,-4.86591 -0.0396,-6.34908 -2.698939,-5.4396 -10.590269,-5.44859 -13.284579,-0.0151 -0.74308,1.49855 -0.76819,4.91539 -0.0468,6.36421 1.23026,2.47069 3.97808,4.19481 6.68547,4.19481 1.03609,0 2.01958,-0.21905 2.96147,-0.6596 z m 71.388778,-32.4687 c 1.69803,-0.50427 3.57457,-2.04817 4.41539,-3.63273 0.48781,-0.91927 0.62103,-1.64945 0.62488,-3.42473 0.004,-1.97152 -0.0954,-2.42697 -0.7896,-3.60795 -1.44567,-2.45943 -4.7627,-4.14139 -7.32468,-3.7141 -6.35863,1.0605 -8.66041,8.79512 -3.84421,12.91761 2.01845,1.72772 4.3582,2.22214 6.91822,1.4619 z M 67.345832,111.11387 c 2.82007,-1.28554 4.37169,-3.70133 4.37169,-6.80647 0,-3.23261 -1.82337,-5.830786 -4.88386,-6.959146 -1.43761,-0.53003 -3.84226,-0.43319 -5.26973,0.21223 -6.11947,2.766846 -5.87459,11.342636 0.39138,13.706046 1.36362,0.51433 4.09717,0.43692 5.39052,-0.15266 z"
           style="fill:#22293d;fill-opacity:1;stroke:#22293d;stroke-width:0.303808;stroke-miterlimit:4;stroke-dasharray:none;stroke-opacity:1" />
      </g>
    </g>
  </g>
</svg>
